<svg version="1.1" id="Layer_1" xmlns="http://www.w3.org/2000/svg" xmlns:xlink="http://www.w3.org/1999/xlink" x="0px" y="0px"
	 width="100%" viewBox="0 0 1080 1080" enable-background="new 0 0 1080 1080" xml:space="preserve">
<path fill="#FF5757" opacity="1.000000" stroke="none" 
	d="
M678.000000,1081.000000 
	C452.026031,1081.000000 226.552048,1081.000000 1.039032,1081.000000 
	C1.039032,721.067566 1.039032,361.135132 1.039032,1.101345 
	C360.890900,1.101345 720.781799,1.101345 1080.836426,1.101345 
	C1080.836426,360.999939 1080.836426,720.999939 1080.836426,1081.000000 
	C946.801331,1081.000000 812.650696,1081.000000 678.000000,1081.000000 
M719.471069,476.276886 
	C719.207642,472.685699 718.944275,469.094513 718.643982,465.000000 
	C716.486206,465.000000 714.529541,465.000000 712.572876,465.000000 
	C672.741211,465.000000 632.909485,465.016083 593.077820,464.993835 
	C570.080933,464.980988 547.084045,464.906250 524.042908,463.941467 
	C524.029602,429.632904 524.014648,395.324310 524.003967,361.015747 
	C524.001526,353.081726 524.008057,353.075958 531.835571,353.075836 
	C620.272339,353.074341 708.709045,353.076324 797.145813,353.071716 
	C804.055969,353.071350 804.076233,353.051697 804.077209,346.190094 
	C804.083618,300.889160 804.080627,255.588242 804.080688,210.287323 
	C804.080688,199.149002 804.080688,199.149002 792.673157,198.213562 
	C792.287354,194.515106 791.901489,190.816650 791.520569,187.165070 
	C633.610229,187.165070 476.023376,187.165070 318.256409,187.165070 
	C318.256409,420.867554 318.256409,654.238281 318.256409,887.940308 
	C322.102142,887.940308 325.573822,887.940308 329.021362,888.865479 
	C329.046173,900.272034 327.866241,898.900513 339.229706,898.907715 
	C398.363556,898.945190 457.497437,898.926331 516.631287,898.923462 
	C523.992554,898.923096 524.001343,898.913208 524.001526,891.521667 
	C524.003662,805.236206 524.002319,718.950745 524.003906,632.665283 
	C524.004089,624.935669 524.010498,624.926819 531.547974,624.926575 
	C595.679077,624.924072 659.810120,624.926697 723.941223,624.922485 
	C730.902649,624.921997 730.921021,624.906433 730.921997,618.115051 
	C730.927917,574.805725 730.969421,531.496399 730.897827,488.187164 
	C730.876648,475.389069 732.665283,477.135529 719.471069,476.276886 
z"/>
<path fill="#FFE5E5" opacity="1.000000" stroke="none" 
	d="
M329.045532,887.940308 
	C325.573822,887.940308 322.102142,887.940308 318.256409,887.940308 
	C318.256409,654.238281 318.256409,420.867554 318.256409,187.165070 
	C476.023376,187.165070 633.610229,187.165070 791.520569,187.165070 
	C791.901489,190.816650 792.287354,194.515106 792.832764,199.045227 
	C792.971130,244.875687 792.950989,289.874451 792.927612,334.873230 
	C792.924011,341.867340 792.917358,341.875671 785.771057,341.875824 
	C697.439331,341.877838 609.107605,341.876831 520.775879,341.877899 
	C512.802002,341.878021 512.796204,341.882324 512.795715,349.628723 
	C512.793335,384.461426 512.706909,419.294464 512.843018,454.126648 
	C512.889648,466.061462 510.283661,465.166412 524.087158,464.859406 
	C547.084045,464.906250 570.080933,464.980988 593.077820,464.993835 
	C632.909485,465.016083 672.741211,465.000000 712.572876,465.000000 
	C714.529541,465.000000 716.486206,465.000000 718.643982,465.000000 
	C718.944275,469.094513 719.207642,472.685699 719.474976,477.010132 
	C719.379700,479.901337 719.195007,482.059235 719.194092,484.217194 
	C719.176758,524.708801 719.182861,565.200378 719.179871,605.691956 
	C719.179382,613.111023 719.171082,613.120850 711.892273,613.121155 
	C648.072205,613.123840 584.252075,613.122070 520.432007,613.123779 
	C512.802185,613.124023 512.795776,613.130188 512.795654,620.709778 
	C512.794067,706.358704 512.806396,792.007568 512.780212,877.656494 
	C512.776794,888.767151 514.079651,887.690002 502.493988,887.695068 
	C446.838867,887.719360 391.183777,887.703247 335.528656,887.715820 
	C333.367615,887.716309 331.206573,887.862122 329.045532,887.940308 
z"/>
<path fill="#FF9090" opacity="1.000000" stroke="none" 
	d="
M329.033447,888.402893 
	C331.206573,887.862122 333.367615,887.716309 335.528656,887.715820 
	C391.183777,887.703247 446.838867,887.719360 502.493988,887.695068 
	C514.079651,887.690002 512.776794,888.767151 512.780212,877.656494 
	C512.806396,792.007568 512.794067,706.358704 512.795654,620.709778 
	C512.795776,613.130188 512.802185,613.124023 520.432007,613.123779 
	C584.252075,613.122070 648.072205,613.123840 711.892273,613.121155 
	C719.171082,613.120850 719.179382,613.111023 719.179871,605.691956 
	C719.182861,565.200378 719.176758,524.708801 719.194092,484.217194 
	C719.195007,482.059235 719.379700,479.901337 719.663879,477.380920 
	C732.665283,477.135529 730.876648,475.389069 730.897827,488.187164 
	C730.969421,531.496399 730.927917,574.805725 730.921997,618.115051 
	C730.921021,624.906433 730.902649,624.921997 723.941223,624.922485 
	C659.810120,624.926697 595.679077,624.924072 531.547974,624.926575 
	C524.010498,624.926819 524.004089,624.935669 524.003906,632.665283 
	C524.002319,718.950745 524.003662,805.236206 524.001526,891.521667 
	C524.001343,898.913208 523.992554,898.923096 516.631287,898.923462 
	C457.497437,898.926331 398.363556,898.945190 339.229706,898.907715 
	C327.866241,898.900513 329.046173,900.272034 329.033447,888.402893 
z"/>
<path fill="#FF9090" opacity="1.000000" stroke="none" 
	d="
M524.065063,464.400452 
	C510.283661,465.166412 512.889648,466.061462 512.843018,454.126648 
	C512.706909,419.294464 512.793335,384.461426 512.795715,349.628723 
	C512.796204,341.882324 512.802002,341.878021 520.775879,341.877899 
	C609.107605,341.876831 697.439331,341.877838 785.771057,341.875824 
	C792.917358,341.875671 792.924011,341.867340 792.927612,334.873230 
	C792.950989,289.874451 792.971130,244.875687 793.045166,199.406403 
	C804.080688,199.149002 804.080688,199.149002 804.080688,210.287323 
	C804.080627,255.588242 804.083618,300.889160 804.077209,346.190094 
	C804.076233,353.051697 804.055969,353.071350 797.145813,353.071716 
	C708.709045,353.076324 620.272339,353.074341 531.835571,353.075836 
	C524.008057,353.075958 524.001526,353.081726 524.003967,361.015747 
	C524.014648,395.324310 524.029602,429.632904 524.065063,464.400452 
z"/>
</svg>